<svg id="Layer_1" data-name="Layer 1" xmlns="http://www.w3.org/2000/svg" viewBox="0 0 196.02146 144.39001"><defs><style>.cls-1{fill:#1b1e3c;}</style></defs><title>Artboard 1</title><path class="cls-1" d="M195.96,142.47,181.39,92.53V15.67A15.68834,15.68834,0,0,0,165.72,0H15.67A15.68835,15.68835,0,0,0,0,15.67v87.08a15.68835,15.68835,0,0,0,15.67,15.67H145.35l48.47,25.79a1.49443,1.49443,0,0,0,1.66-.16A1.49352,1.49352,0,0,0,195.96,142.47ZM146.43,115.6a1.46894,1.46894,0,0,0-.71-.18H15.67A12.686,12.686,0,0,1,3,102.75V15.67A12.686,12.686,0,0,1,15.67,3H165.73A12.686,12.686,0,0,1,178.4,15.67V92.75a1.5222,1.5222,0,0,0,.06.42l13.63,46.73Z"/><path class="cls-1" d="M76.4,60.96a7.92961,7.92961,0,0,0-2.24.39,4.91875,4.91875,0,0,1-1.12.17c-1.42,0-2.12-1.17-2.12-3.52q0-10.005,10.84-12.13V42.96a17.30959,17.30959,0,0,0-10.48,5.9A16.90381,16.90381,0,0,0,67.56,59.9c0,3.73.88,6.71,2.66,8.94a7.778,7.778,0,0,0,6.23,3.35,5.68709,5.68709,0,0,0,4.28-1.71,5.43663,5.43663,0,0,0,1.65-3.88,5.57239,5.57239,0,0,0-1.62-3.91A5.69359,5.69359,0,0,0,76.4,60.96Z"/><path class="cls-1" d="M101.67,60.96a8.35185,8.35185,0,0,0-2.24.39,4.91875,4.91875,0,0,1-1.12.17c-1.38,0-2.07-1.17-2.07-3.52q0-10.005,10.84-12.13V42.96a17.44474,17.44474,0,0,0-10.51,5.9A16.81751,16.81751,0,0,0,92.82,59.9a14.165,14.165,0,0,0,2.63,8.92,7.75518,7.75518,0,0,0,6.26,3.38,5.68711,5.68711,0,0,0,4.28-1.71,5.43662,5.43662,0,0,0,1.65-3.88,5.57238,5.57238,0,0,0-1.62-3.91A5.64273,5.64273,0,0,0,101.67,60.96Z"/></svg>