<svg id="Layer_1" data-name="Layer 1" xmlns="http://www.w3.org/2000/svg" viewBox="0 0 465.07 20.85"><title>Artboard 1</title><path d="M8.48,13.81a12.82,12.82,0,0,1-.11,1.65,4.06,4.06,0,0,1-.45,1.44,2.71,2.71,0,0,1-.94,1,2.93,2.93,0,0,1-1.61.39,2.58,2.58,0,0,1-1.82-.64,3.15,3.15,0,0,1-.92-1.76L0,16.5a5,5,0,0,0,1.83,3.26,5.73,5.73,0,0,0,3.54,1.08,7.19,7.19,0,0,0,1.85-.27,5.14,5.14,0,0,0,3.36-2.83,7,7,0,0,0,.59-3.07V.5H8.48V13.81Z"/><path d="M40,3A9.77,9.77,0,0,0,36.73.8a11.27,11.27,0,0,0-8.34,0A9.53,9.53,0,0,0,25.13,3,10.14,10.14,0,0,0,23,6.3a10.94,10.94,0,0,0-.77,4.12A11,11,0,0,0,23,14.54a10,10,0,0,0,2.13,3.3A9.77,9.77,0,0,0,28.39,20a11.27,11.27,0,0,0,8.34,0A9.53,9.53,0,0,0,40,17.84a10.14,10.14,0,0,0,2.13-3.3,10.94,10.94,0,0,0,.77-4.12,11,11,0,0,0-.77-4.12A10.24,10.24,0,0,0,40,3ZM39.5,13.49A7.48,7.48,0,0,1,38,16a7.43,7.43,0,0,1-10.86,0,7.38,7.38,0,0,1-1.51-2.51,9.16,9.16,0,0,1,0-6.14,7.48,7.48,0,0,1,1.51-2.51A7.43,7.43,0,0,1,38,4.84,7.38,7.38,0,0,1,39.5,7.35a9.16,9.16,0,0,1,0,6.14Z"/><path d="M81.89,17.62a6.16,6.16,0,0,1-3,.7,7.54,7.54,0,0,1-3.11-.62A6.7,6.7,0,0,1,73.46,16,7.61,7.61,0,0,1,72,13.56a8.58,8.58,0,0,1-.5-3A9.3,9.3,0,0,1,72,7.44a7.69,7.69,0,0,1,1.5-2.56,7.06,7.06,0,0,1,2.32-1.72,7.16,7.16,0,0,1,3-.63,6.39,6.39,0,0,1,2.66.59A5.5,5.5,0,0,1,83.68,4.8l2.24-1.71A7.16,7.16,0,0,0,82.83.77,10.36,10.36,0,0,0,79,0a11,11,0,0,0-4.2.78A9.39,9.39,0,0,0,71.52,3a9.84,9.84,0,0,0-2.11,3.36,11.7,11.7,0,0,0-.76,4.24,10.29,10.29,0,0,0,5.95,9.35,9.73,9.73,0,0,0,4.24.9,9.51,9.51,0,0,0,3-.43,10.29,10.29,0,0,0,2.23-1,7.25,7.25,0,0,0,1.48-1.15,9.87,9.87,0,0,0,.78-.88l-2.27-1.71A6.37,6.37,0,0,1,81.89,17.62Z"/><path d="M113.8,3A9.77,9.77,0,0,0,110.54.8a11.27,11.27,0,0,0-8.34,0A9.53,9.53,0,0,0,98.94,3a10.14,10.14,0,0,0-2.13,3.3A10.94,10.94,0,0,0,96,10.42a11,11,0,0,0,.77,4.12,10,10,0,0,0,2.13,3.3A9.77,9.77,0,0,0,102.2,20a11.27,11.27,0,0,0,8.34,0,9.53,9.53,0,0,0,3.26-2.2,10.14,10.14,0,0,0,2.13-3.3,10.94,10.94,0,0,0,.77-4.12,11,11,0,0,0-.77-4.12A10.41,10.41,0,0,0,113.8,3Zm-.49,10.49A7.48,7.48,0,0,1,111.8,16a7.43,7.43,0,0,1-10.86,0,7.38,7.38,0,0,1-1.51-2.51,9.16,9.16,0,0,1,0-6.14,7.48,7.48,0,0,1,1.51-2.51,7.43,7.43,0,0,1,10.86,0,7.38,7.38,0,0,1,1.51,2.51,9.16,9.16,0,0,1,0,6.14Z"/><polygon points="145.41 16.36 145.35 16.36 140.69 0.51 137.61 0.51 132.95 16.36 132.89 16.36 128.51 0.51 125.71 0.51 131.51 20.33 134.36 20.33 139.12 4.15 139.18 4.15 143.97 20.33 146.82 20.33 152.59 0.51 149.79 0.51 145.41 16.36"/><polygon points="165.53 11.46 174.93 11.46 174.93 8.94 165.53 8.94 165.53 3.03 175.64 3.03 175.64 0.51 162.84 0.51 162.84 20.33 176.14 20.33 176.14 17.81 165.53 17.81 165.53 11.46"/><polygon points="202.12 16.8 202.07 16.8 191.15 0.51 187.62 0.51 187.62 20.33 190.31 20.33 190.31 4.04 190.36 4.04 201.39 20.33 204.81 20.33 204.81 0.51 202.12 0.51 202.12 16.8"/><path d="M239.28.51l-8.65,19.82h1.93l2.24-5.26h10.5l2.16,5.26h2.07L241.19.51Zm-3.75,12.88,4.62-10.86,4.48,10.86Z"/><path d="M269,10.42a5.34,5.34,0,0,0,1.64-.85,4.47,4.47,0,0,0,1.23-1.5,5,5,0,0,0,.49-2.35,5.08,5.08,0,0,0-.42-2.18,4.56,4.56,0,0,0-1.06-1.48,4.69,4.69,0,0,0-1.46-.9,8.94,8.94,0,0,0-1.6-.45,11.72,11.72,0,0,0-1.46-.17l-1.06,0h-5.21V20.33h1.85V10.92h3.44l5.57,9.41H273l-5.77-9.52A9.79,9.79,0,0,0,269,10.42ZM261.9,9.25V2.19h3.92a6.56,6.56,0,0,1,2.37.36,3.73,3.73,0,0,1,1.41.9,3.07,3.07,0,0,1,.69,1.15,4,4,0,0,1,.18,1.12,4,4,0,0,1-.18,1.12A2.83,2.83,0,0,1,269.6,8a4.18,4.18,0,0,1-1.41.9,6.56,6.56,0,0,1-2.37.36Z"/><path d="M297.91,17.46a7.82,7.82,0,0,1-1.47.95,7.09,7.09,0,0,1-1.58.56,7.21,7.21,0,0,1-1.57.18,8.69,8.69,0,0,1-3.49-.67,7.72,7.72,0,0,1-2.65-1.85,8.11,8.11,0,0,1-1.68-2.77,9.9,9.9,0,0,1-.59-3.44A9.9,9.9,0,0,1,285.47,7a8.11,8.11,0,0,1,1.68-2.77,7.85,7.85,0,0,1,2.65-1.85,8.69,8.69,0,0,1,3.49-.67,7.13,7.13,0,0,1,2.95.64,5.54,5.54,0,0,1,2.37,2l1.51-1.26A7.42,7.42,0,0,0,297.05.72,9.81,9.81,0,0,0,293.28,0a10.81,10.81,0,0,0-4.16.78A9.47,9.47,0,0,0,285.89,3a9.76,9.76,0,0,0-2.1,3.29,11.29,11.29,0,0,0-.76,4.17,11.23,11.23,0,0,0,.76,4.19,9.71,9.71,0,0,0,2.1,3.3,9.55,9.55,0,0,0,3.23,2.16,11,11,0,0,0,4.16.77,9.8,9.8,0,0,0,4.06-.84,8.36,8.36,0,0,0,3.3-2.77l-1.51-1.15A5.6,5.6,0,0,1,297.91,17.46Z"/><polygon points="324.65 9.25 313.56 9.25 313.56 0.51 311.71 0.51 311.71 20.33 313.56 20.33 313.56 10.92 324.65 10.92 324.65 20.33 326.5 20.33 326.5 0.51 324.65 0.51 324.65 9.25"/><rect x="339.6" y="0.51" width="1.85" height="19.82"/><polygon points="352.17 2.19 358.95 2.19 358.95 20.33 360.8 20.33 360.8 2.19 367.57 2.19 367.57 0.51 352.17 0.51 352.17 2.19"/><polygon points="380.14 10.92 389.78 10.92 389.78 9.25 380.14 9.25 380.14 2.19 390.42 2.19 390.42 0.51 378.3 0.51 378.3 20.33 390.87 20.33 390.87 18.65 380.14 18.65 380.14 10.92"/><path d="M416.15,17.46a7.82,7.82,0,0,1-1.47.95,7.09,7.09,0,0,1-1.58.56,7.21,7.21,0,0,1-1.57.18,8.69,8.69,0,0,1-3.49-.67,7.72,7.72,0,0,1-2.65-1.85,8.11,8.11,0,0,1-1.68-2.77,9.9,9.9,0,0,1-.59-3.44A9.9,9.9,0,0,1,403.71,7a8.11,8.11,0,0,1,1.68-2.77A7.85,7.85,0,0,1,408,2.36a8.69,8.69,0,0,1,3.49-.67,7.13,7.13,0,0,1,3,.64,5.54,5.54,0,0,1,2.37,2l1.51-1.26A7.42,7.42,0,0,0,415.29.72,9.81,9.81,0,0,0,411.52,0a10.81,10.81,0,0,0-4.16.78A9.47,9.47,0,0,0,404.13,3,9.76,9.76,0,0,0,402,6.25a11.29,11.29,0,0,0-.76,4.17,11.23,11.23,0,0,0,.76,4.19,9.71,9.71,0,0,0,2.1,3.3,9.55,9.55,0,0,0,3.23,2.16,11,11,0,0,0,4.16.77,9.8,9.8,0,0,0,4.06-.84,8.36,8.36,0,0,0,3.3-2.77l-1.51-1.15A5.6,5.6,0,0,1,416.15,17.46Z"/><polygon points="427.58 2.19 434.35 2.19 434.35 20.33 436.2 20.33 436.2 2.19 442.98 2.19 442.98 0.51 427.58 0.51 427.58 2.19"/><path d="M464.31,12.37a5.24,5.24,0,0,0-1.89-1.64A12.67,12.67,0,0,0,460,9.79,20.87,20.87,0,0,1,457.5,9a5.4,5.4,0,0,1-1.89-1.26,3.2,3.2,0,0,1-.76-2.28,3.55,3.55,0,0,1,.36-1.65,3.31,3.31,0,0,1,1-1.16,4.24,4.24,0,0,1,1.41-.7,6,6,0,0,1,1.71-.24,4.73,4.73,0,0,1,2.23.49,4.84,4.84,0,0,1,1.64,1.47l1.6-1.15A5.67,5.67,0,0,0,462.38.58a7.83,7.83,0,0,0-3-.57A8.36,8.36,0,0,0,457,.36a6.1,6.1,0,0,0-2,1A5,5,0,0,0,453,5.45a5.64,5.64,0,0,0,.43,2.35,4.67,4.67,0,0,0,1.16,1.58,6.28,6.28,0,0,0,1.64,1,19.13,19.13,0,0,0,1.88.7l1.88.62a8.84,8.84,0,0,1,1.64.74,3.43,3.43,0,0,1,1.16,1.11,3.1,3.1,0,0,1,.43,1.71,3.6,3.6,0,0,1-1.3,2.83,4.2,4.2,0,0,1-1.41.78,5.2,5.2,0,0,1-1.74.28,5.6,5.6,0,0,1-2.65-.62,4.74,4.74,0,0,1-1.89-1.88l-1.76,1.18a6.64,6.64,0,0,0,2.83,2.31,9.29,9.29,0,0,0,3.61.69,7.5,7.5,0,0,0,2.32-.36,5.72,5.72,0,0,0,2-1.08,5.17,5.17,0,0,0,1.86-4.13A4.84,4.84,0,0,0,464.31,12.37Z"/></svg>