<svg xmlns="http://www.w3.org/2000/svg" viewBox="0 0 69.57321 20.85225"><title>JCA</title><path d="M8.48,13.56459a12.81986,12.81986,0,0,1-.11,1.65,4.06,4.06,0,0,1-.45,1.44,2.71,2.71,0,0,1-.94,1,2.93006,2.93006,0,0,1-1.61.39,2.58,2.58,0,0,1-1.82-.64,3.15,3.15,0,0,1-.92-1.76l-2.63.61a5,5,0,0,0,1.83,3.26,5.73,5.73,0,0,0,3.54,1.08,7.19018,7.19018,0,0,0,1.85-.27,5.14,5.14,0,0,0,3.36-2.83,7,7,0,0,0,.59-3.07V.25459H8.48Z"/><path d="M35.47,17.62077a6.1601,6.1601,0,0,1-3,.7,7.54025,7.54025,0,0,1-3.11-.62,6.69989,6.69989,0,0,1-2.32-1.7,7.61017,7.61017,0,0,1-1.46-2.44,8.58008,8.58008,0,0,1-.5-3,9.30012,9.30012,0,0,1,.5-3.12,7.6899,7.6899,0,0,1,1.5-2.56,7.06011,7.06011,0,0,1,2.32-1.72,7.16006,7.16006,0,0,1,3-.63,6.38991,6.38991,0,0,1,2.66.59,5.5001,5.5001,0,0,1,2.2,1.68l2.24-1.71a7.16007,7.16007,0,0,0-3.09-2.32,10.36,10.36,0,0,0-3.83-.77,11.00017,11.00017,0,0,0-4.2.78,9.39,9.39,0,0,0-3.28,2.22,9.84,9.84,0,0,0-2.11,3.36,11.7,11.7,0,0,0-.76,4.24,10.29,10.29,0,0,0,5.95,9.35,9.73,9.73,0,0,0,4.24.9,9.51006,9.51006,0,0,0,3-.43,10.28972,10.28972,0,0,0,2.23-1,7.25007,7.25007,0,0,0,1.48-1.15,9.87018,9.87018,0,0,0,.78-.88l-2.27-1.71A6.37018,6.37018,0,0,1,35.47,17.62077Z"/><path d="M59.32319.51612l-8.65,19.82h1.93l2.24-5.26h10.5l2.16,5.26h2.07l-8.34-19.82Zm-3.75,12.88,4.62-10.86,4.48,10.86Z"/></svg>
